<svg version="1.1" xmlns="http://www.w3.org/2000/svg" xmlns:xlink="http://www.w3.org/1999/xlink" x="0px" y="0px" viewBox="0 0 15.602 15.602" style="enable-background:new 0 0 15.602 15.602;" xml:space="preserve" width="16" height="16" transform="rotate(45)" fill="grey">
	<path d="M 9.018 0 L 10.839 0 C 10.956 0 11.055 0.161 11.055 0.354 L 11.055 15.247 C 11.055 15.442 10.957 15.602 10.839 15.602 L 9.018 15.602 C 8.901 15.602 8.8 15.442 8.8 15.247 L 8.8 0.354 C 8.8 0.161 8.901 0 9.018 0"/>
	<path d="M 4.367 0 L 6.315 0 C 6.44 0 6.545 0.161 6.545 0.354 L 6.545 15.247 C 6.545 15.442 6.441 15.602 6.315 15.602 L 4.367 15.602 C 4.238 15.602 4.134 15.441 4.134 15.246 L 4.134 0.354 C 4.134 0.161 4.238 0 4.367 0 Z"/>
</svg>