<svg version="1.1" id="Capa_1" x="0px" y="0px" viewBox="0 0 16 16" fill="white" style="enable-background:new 0 0 16 16;" xmlns="http://www.w3.org/2000/svg">
  <path d="M 0.098 4.605 L 0.098 3.562 C 0.119 3.185 0.287 2.867 0.601 2.608 C 0.915 2.349 1.285 2.22 1.709 2.22 L 3.322 2.22 L 3.322 1.743 C 3.322 1.346 3.479 1.008 3.792 0.729 C 4.106 0.452 4.487 0.312 4.935 0.312 L 10.31 0.312 C 10.757 0.312 11.139 0.452 11.452 0.729 C 11.766 1.008 11.922 1.346 11.922 1.743 L 11.922 2.22 L 13.535 2.22 C 13.96 2.22 14.33 2.349 14.644 2.608 C 14.957 2.867 15.125 3.185 15.147 3.562 L 15.147 4.605 C 15.147 4.864 15.04 5.088 14.828 5.276 C 14.616 5.465 14.363 5.56 14.072 5.559 L 14.072 13.67 C 14.072 14.206 13.865 14.658 13.45 15.026 C 13.037 15.394 12.527 15.578 11.922 15.578 L 3.322 15.578 C 2.718 15.578 2.208 15.394 1.795 15.026 C 1.379 14.658 1.172 14.206 1.172 13.67 L 1.172 5.559 C 0.881 5.559 0.63 5.465 0.417 5.276 C 0.205 5.088 0.098 4.864 0.098 4.605 Z M 1.172 4.605 L 14.072 4.605 L 14.072 3.652 C 14.072 3.512 14.022 3.398 13.921 3.309 C 13.82 3.219 13.691 3.174 13.535 3.174 L 1.709 3.174 C 1.553 3.174 1.424 3.219 1.323 3.309 C 1.223 3.398 1.172 3.512 1.172 3.652 L 1.172 4.605 Z M 2.248 13.67 C 2.248 13.928 2.354 14.152 2.567 14.341 C 2.779 14.529 3.032 14.624 3.322 14.624 L 11.922 14.624 C 12.213 14.624 12.466 14.529 12.678 14.341 C 12.891 14.152 12.997 13.928 12.997 13.67 L 12.997 5.559 L 2.248 5.559 L 2.248 13.67 Z M 3.322 13.193 L 3.322 6.991 C 3.322 6.852 3.373 6.738 3.473 6.648 C 3.574 6.559 3.703 6.514 3.859 6.514 L 4.935 6.514 C 5.091 6.514 5.22 6.559 5.321 6.648 C 5.422 6.738 5.473 6.852 5.473 6.991 L 5.473 13.193 C 5.473 13.331 5.422 13.446 5.321 13.535 C 5.22 13.625 5.091 13.67 4.935 13.67 L 3.859 13.67 C 3.703 13.67 3.574 13.625 3.473 13.535 C 3.373 13.446 3.322 13.331 3.322 13.193 Z M 3.859 13.193 L 4.935 13.193 L 4.935 6.991 L 3.859 6.991 L 3.859 13.193 Z M 4.397 2.22 L 10.848 2.22 L 10.848 1.743 C 10.848 1.605 10.797 1.49 10.696 1.401 C 10.595 1.311 10.466 1.266 10.31 1.266 L 4.935 1.266 C 4.778 1.266 4.65 1.311 4.548 1.401 C 4.448 1.49 4.397 1.605 4.397 1.743 L 4.397 2.22 Z M 6.547 13.193 L 6.547 6.991 C 6.547 6.852 6.598 6.738 6.698 6.648 C 6.799 6.559 6.928 6.514 7.085 6.514 L 8.16 6.514 C 8.316 6.514 8.446 6.559 8.546 6.648 C 8.647 6.738 8.697 6.852 8.697 6.991 L 8.697 13.193 C 8.697 13.331 8.647 13.446 8.546 13.535 C 8.446 13.625 8.316 13.67 8.16 13.67 L 7.085 13.67 C 6.928 13.67 6.799 13.625 6.698 13.535 C 6.598 13.446 6.547 13.331 6.547 13.193 Z M 7.084 13.193 L 8.16 13.193 L 8.16 6.991 L 7.084 6.991 L 7.084 13.193 Z M 9.772 13.193 L 9.772 6.991 C 9.772 6.852 9.823 6.738 9.924 6.648 C 10.025 6.559 10.153 6.514 10.31 6.514 L 11.384 6.514 C 11.541 6.514 11.67 6.559 11.771 6.648 C 11.872 6.738 11.922 6.852 11.922 6.991 L 11.922 13.193 C 11.922 13.331 11.872 13.446 11.771 13.535 C 11.67 13.625 11.541 13.67 11.384 13.67 L 10.31 13.67 C 10.153 13.67 10.025 13.625 9.924 13.535 C 9.823 13.446 9.772 13.331 9.772 13.193 Z M 10.31 13.193 L 11.384 13.193 L 11.384 6.991 L 10.31 6.991 L 10.31 13.193 Z" style=""></path>
</svg>