<svg xmlns="http://www.w3.org/2000/svg" width="16" height="16" fill="grey" class="bi bi-hexagon" transform="rotate(45)" viewBox="0 0 16 16">
  <defs></defs>
  <path d="M 3.685 -0.059 L 5.234 -0.059 C 5.333 -0.059 5.416 0.103 5.416 0.297 L 5.416 15.304 C 5.416 15.5 5.334 15.661 5.234 15.661 L 3.685 15.661 C 3.583 15.661 3.5 15.499 3.5 15.303 L 3.5 0.297 C 3.5 0.103 3.583 -0.059 3.685 -0.059 Z" style="fill: grey;"></path>
  <path d="M 6.625 -0.041 L 8.174 -0.041 C 8.273 -0.041 8.356 0.121 8.356 0.315 L 8.356 15.322 C 8.356 15.518 8.274 15.679 8.174 15.679 L 6.625 15.679 C 6.523 15.679 6.44 15.517 6.44 15.321 L 6.44 0.315 C 6.44 0.121 6.523 -0.041 6.625 -0.041 Z" style="fill: grey;"></path>
  <path d="M 9.482 -0.023 L 11.031 -0.023 C 11.13 -0.023 11.213 0.139 11.213 0.333 L 11.213 15.34 C 11.213 15.536 11.131 15.697 11.031 15.697 L 9.482 15.697 C 9.38 15.697 9.297 15.535 9.297 15.339 L 9.297 0.333 C 9.297 0.139 9.38 -0.023 9.482 -0.023 Z" style="fill: grey;"></path>
</svg>
