<svg version="1.0" xmlns="http://www.w3.org/2000/svg" width="16" height="16" viewBox="0 0 95.000000 160.000000" preserveAspectRatio="xMidYMid meet">
<g transform="translate(0.000000,160.000000) scale(0.100000,-0.100000)" fill="grey" stroke="none">
    <path d="M 563.679 1490 C 511.214 1474 427.488 1449 377.052 1434 C 327.646 1420 273.239 1406 256.181 1404 C 219.036 1399 59.642 1351 59.438 1344 C 59.235 1337 660.716 65.346 664.716 65.346 C 666.716 65.346 677.127 124.371 741.679 143.371 C 806.231 162.371 470.238 997.981 487.296 999.981 C 503.383 1002.981 616.671 317.579 692.31 339.579 L 803.256 69.403 L 690.314 1443 C 690.928 1533 699.84 1530 563.679 1490 Z"/>
    <path d="M675 1083 c-22 -8 -62 -19 -90 -24 -58 -13 -314 -88 -331 -97 -8 -5 -3 -27 18 -73 l30 -67 66 18 c37 10 105 30 152 44 47 14 113 33 148 42 62 16 62 16 61 53 0 20 -4 54 -7 77 l-7 41 -40 -14z"/>
    <path d="M 683.974 668 C 665.136 659 557.955 613 537.818 605 C 532.621 603 522.228 601 515.082 601 C 485.851 599 484.552 587 505.988 514 C 517.031 476 526.775 444 528.074 442 C 529.373 440 551.459 448 578.092 461 C 604.075 473 630.058 484 635.255 485 C 640.452 487 644.999 489 644.999 490 C 644.999 491 653.444 494 663.187 496 C 672.931 499 688.521 505 696.965 510 C 714.504 520 716.453 540 708.009 631 C 703.462 676 703.462 677 683.974 668 Z"/>
    <path d="M 676 219 C 638 209 605 199 603 196 C 595 188 665 50 675 53 C 680 56 711 63 743 70 L 800 83 L 800 162 L 762.264 240 L 773 239 C 757 238 714 229 676 219 Z"/>
</g>
</svg> 