<svg version="1.0" xmlns="http://www.w3.org/2000/svg" width="16" height="16" viewBox="0 0 95.000000 160.000000" preserveAspectRatio="xMidYMid meet">
<g transform="translate(0.000000,160.000000) scale(0.100000,-0.100000)" fill="grey" stroke="none">
    <path d="M560 1490 c-52 -16 -135 -41 -185 -56 -49 -14 -103 -28 -120 -30 -37
    -5 -195 -53 -195 -60 0 -7 58 -134 62 -134 2 0 56 15 120 34 64 19 130 37 147
    39 16 3 91 22 166 44 l135 38 -2 78 c-2 90 7 87 -128 47z"/>
    <path d="M675 1083 c-22 -8 -62 -19 -90 -24 -58 -13 -314 -88 -331 -97 -8 -5
    -3 -27 18 -73 l30 -67 66 18 c37 10 105 30 152 44 47 14 113 33 148 42 62 16
    62 16 61 53 0 20 -4 54 -7 77 l-7 41 -40 -14z"/>
    <path d="M725 668 c-29 -9 -194 -55 -225 -63 -8 -2 -24 -4 -35 -4 -45 -2 -47
    -14 -14 -87 17 -38 32 -70 34 -72 2 -2 36 6 77 19 40 12 80 23 88 24 8 2 15 4
    15 5 0 1 13 4 28 6 15 3 39 9 52 14 27 10 30 30 17 121 -7 45 -7 46 -37 37z"/>
    <path d="M676 219 c-38 -10 -71 -20 -73 -23 -8 -8 62 -146 72 -143 5 3 36 10
    68 17 l57 13 0 79 0 78 -27 -1 c-16 -1 -59 -10 -97 -20z"/>
</g>
</svg>